<svg width="94" height="79" viewBox="0 0 94 79" fill="none" xmlns="http://www.w3.org/2000/svg">
<path d="M92.8779 16.267C91.9205 13.2662 90.0056 10.857 87.7452 8.62087C85.2905 6.18278 82.3823 4.47323 79.3156 3.21811C75.6587 1.72496 71.7858 0.808872 67.7834 0.368861C62.7083 -0.186563 57.6621 -0.0927902 52.6518 0.592473C47.2096 1.33544 41.8898 2.64826 36.75 4.68962C31.9485 6.60115 27.291 8.72186 22.8566 11.4341C19.43 13.5331 16.241 15.9352 13.2104 18.5031C8.16416 22.7806 3.82337 27.7361 1.37583 33.9972C-0.380641 38.4911 -0.661388 43.1293 1.73576 47.5871C2.34765 48.7268 3.1179 49.7799 3.75139 50.9124C4.66561 52.5426 5.71662 54.0213 6.91879 55.4856C11.0508 60.5061 16.8313 62.3311 22.655 64.0262C25.7577 64.9278 29.0618 65.0144 32.2724 65.4616C37.2755 66.1541 42.293 66.1325 47.3104 66.1685C49.542 66.183 51.7664 65.6636 54.4155 65.9521C52.7526 67.2145 51.3777 68.2748 49.9883 69.328C47.7207 71.0447 45.446 72.7543 43.1712 74.4638C43.2504 74.6009 43.344 74.7307 43.3944 74.8461C43.3512 74.7307 43.2504 74.5937 43.1712 74.4638C41.9186 75.0986 40.5581 75.5963 39.4495 76.4258C38.8664 76.8586 37.9234 76.9163 37.693 77.8036C36.8652 77.7098 36.1885 77.8324 36.2029 79.0082C36.7644 78.7774 37.3979 79.0587 37.873 78.5754C38.6217 78.3734 39.4207 78.2869 40.0974 77.9478C41.0332 77.4862 42.2354 77.5727 42.9264 76.6062C43.9415 77.0173 44.5461 76.094 45.3668 75.8632C49.614 74.7019 53.2493 72.3071 56.863 69.9555C60.484 67.5968 63.6802 64.6754 66.9195 61.7973C70.4109 58.7028 73.6719 55.3991 76.9329 52.0882C79.4956 49.4842 81.828 46.671 84.1315 43.829C88.062 38.9816 91.8269 34.1487 93.389 27.9164C94.3896 23.9347 94.0657 20.0756 92.8563 16.2814L92.8779 16.267ZM84.1963 34.3435C82.4254 36.9908 80.5394 39.5731 78.5238 42.0617C76.177 44.9614 73.7151 47.7674 71.1596 50.4508C67.7474 54.0358 64.2848 57.5991 60.4768 60.7946C60.3256 60.9245 60.1312 61.0255 60.0232 61.1914C58.13 64.1127 55.3585 62.5547 52.9542 62.497C49.2541 62.4104 45.5612 62.1002 41.8682 61.8117C35.1951 61.2923 28.5147 60.6143 22.0864 58.6883C16.5146 57.0149 11.274 54.5479 7.48029 49.8304C5.37108 47.2048 4.78079 44.2113 5.36388 40.9364C6.37169 35.2379 9.59669 30.8162 13.3688 26.6541C15.586 24.2088 17.9831 21.9871 20.5962 20.0107C23.2165 18.027 26.0024 16.2742 28.8171 14.5791C31.6174 12.8911 34.7992 11.9823 37.6066 10.417C41.0116 8.51988 44.7549 7.88511 48.347 6.86083C51.5 5.95916 54.8834 5.4903 58.2524 5.2739C63.2698 4.95652 68.2009 5.18013 73.1464 6.12507C76.5369 6.77427 79.6828 8.01495 82.4254 9.91205C88.026 13.7928 90.1712 15.5312 88.789 24.6055C87.9324 28.0174 86.2335 31.2923 84.1891 34.3435H84.1963Z" fill="#E60012"/>
</svg>
