<svg width="79" height="63" viewBox="0 0 79 63" fill="none" xmlns="http://www.w3.org/2000/svg">
<path d="M46.1886 21.8631C43.5437 24.0016 41.0006 26.2753 38.2964 28.3333C33.3072 32.1419 28.7213 36.4847 23.7705 40.3416C22.9591 40.9755 22.3597 41.8927 21.58 42.497C19.9436 43.7554 18.3883 45.1167 16.8038 46.4329C15.3667 47.6173 14.0867 49.0109 12.6954 50.2661C12.0045 50.8953 11.1927 51.3377 10.5476 52.0377C9.26844 53.4215 5.49162 56.8728 4.02254 58.0414C2.69991 59.0879 1.21165 60.013 0.740514 62.0623C1.31029 61.7855 2.08322 61.5418 2.44743 62.0829C3.45679 63.5774 4.23692 62.58 5.04185 62.4984C5.32287 62.4721 5.61712 61.9713 6.02633 61.8622C7.3424 61.5142 10.4102 57.8543 11.9107 57.8255C11.9879 57.8213 12.0825 57.6414 12.0797 57.5245C12.0586 57.0083 12.3544 57.0273 12.7254 56.9154C13.6496 56.6471 14.7645 56.2464 15.0178 55.3336C15.3728 54.0719 16.5127 53.4176 17.1385 53.3512C18.5013 53.2105 19.0385 52.2421 19.866 51.543C20.2054 51.4607 20.6187 51.5042 20.7092 51.0256C22.0476 49.576 23.6468 48.4513 25.1306 47.1819C26.976 45.6058 28.8463 44.0683 30.7083 42.518C33.7994 39.945 36.9247 37.4139 39.9866 34.7958C41.9999 33.0747 43.8729 31.1701 45.8987 29.4682C47.0508 28.4954 48.3141 27.6608 49.4464 26.6459C50.8735 25.3674 52.3381 24.147 53.7351 22.8331C54.513 22.1021 55.2194 21.1706 56.1141 20.6655C58.0052 19.5988 59.2479 17.7087 61.1486 16.6906C61.7972 16.3446 62.0345 15.3508 62.5972 15.0968C64.1335 14.4147 65.1057 13.0283 66.4738 12.1533C68.5966 10.7816 70.1059 8.57304 72.3732 7.39114C72.5046 7.32451 72.6501 7.21222 72.6924 7.07525C72.9643 6.16873 73.8218 5.94348 74.3266 5.35236C75.2493 4.27194 76.7641 3.75899 76.9785 1.97611C78.1432 2.38368 78.1162 1.1496 78.7181 0.742422C78.0168 0.163321 77.4265 0.16105 76.8558 0.447641C76.6581 0.456644 76.4457 0.420347 76.2668 0.481084C72.813 1.6715 69.7647 3.56821 66.8673 5.68715C63.1837 8.37802 59.5918 11.2107 55.9915 14.0304C52.6986 16.6059 49.4441 19.2297 46.1928 21.8696L46.1886 21.8631Z" fill="#E60012"/>
</svg>
